<svg id="Icon_awesome-arrow-right" data-name="Icon awesome-arrow-right" xmlns="http://www.w3.org/2000/svg" width="80.666" height="63.093" viewBox="0 0 80.666 63.093">
  <path id="Icon_awesome-arrow-right-2" data-name="Icon awesome-arrow-right" d="M34.3,6.873l4-3.207a5.081,5.081,0,0,1,6.1,0l35,28.072a3,3,0,0,1,0,4.9l-35,28.086a5.081,5.081,0,0,1-6.1,0l-4-3.207a3.017,3.017,0,0,1,.072-4.956L56.064,39.973H4.321C1.926,39.973,0,38.427,0,36.505V31.882c0-1.922,1.926-3.467,4.321-3.467H56.064L34.369,11.829A3,3,0,0,1,34.3,6.873Z" transform="translate(0 -2.647)" fill="#fff"/>
</svg>
